<mxfile host="app.diagrams.net" modified="2022-06-10T15:41:16.372Z" agent="5.0 (Windows NT 10.0; Win64; x64) AppleWebKit/537.36 (KHTML, like Gecko) Chrome/102.0.5005.63 Safari/537.36 Edg/102.0.1245.33" etag="9fn7GLGSI8ClGCwDAT-w" version="19.0.2" type="github">
  <diagram id="XfrrkzO2ntKZUoqB1NKl" name="Page-1">
    <mxGraphModel dx="1550" dy="867" grid="1" gridSize="10" guides="1" tooltips="1" connect="1" arrows="1" fold="1" page="1" pageScale="1" pageWidth="827" pageHeight="1169" math="0" shadow="0">
      <root>
        <mxCell id="0" />
        <mxCell id="1" parent="0" />
        <mxCell id="gV2maCszTZsxZBhJ0pXW-32" value="" style="edgeStyle=orthogonalEdgeStyle;rounded=0;orthogonalLoop=1;jettySize=auto;html=1;fontFamily=Helvetica;fontSize=12;fontColor=default;" edge="1" parent="1" source="gV2maCszTZsxZBhJ0pXW-1" target="gV2maCszTZsxZBhJ0pXW-28">
          <mxGeometry relative="1" as="geometry" />
        </mxCell>
        <mxCell id="gV2maCszTZsxZBhJ0pXW-1" value="定时猜数部分开始" style="ellipse;whiteSpace=wrap;html=1;" vertex="1" parent="1">
          <mxGeometry x="380" y="10" width="120" height="80" as="geometry" />
        </mxCell>
        <mxCell id="gV2maCszTZsxZBhJ0pXW-17" value="" style="edgeStyle=orthogonalEdgeStyle;rounded=0;orthogonalLoop=1;jettySize=auto;html=1;fontFamily=Helvetica;fontSize=12;fontColor=default;" edge="1" parent="1" source="gV2maCszTZsxZBhJ0pXW-2" target="gV2maCszTZsxZBhJ0pXW-3">
          <mxGeometry relative="1" as="geometry" />
        </mxCell>
        <mxCell id="gV2maCszTZsxZBhJ0pXW-2" value="初始化8254，使OUT1输出1HZ的时钟信号" style="rounded=0;whiteSpace=wrap;html=1;" vertex="1" parent="1">
          <mxGeometry x="380" y="220" width="120" height="60" as="geometry" />
        </mxCell>
        <mxCell id="gV2maCszTZsxZBhJ0pXW-18" value="" style="edgeStyle=orthogonalEdgeStyle;rounded=0;orthogonalLoop=1;jettySize=auto;html=1;fontFamily=Helvetica;fontSize=12;fontColor=default;" edge="1" parent="1" source="gV2maCszTZsxZBhJ0pXW-3" target="gV2maCszTZsxZBhJ0pXW-5">
          <mxGeometry relative="1" as="geometry" />
        </mxCell>
        <mxCell id="gV2maCszTZsxZBhJ0pXW-3" value="初始化8259，设置中断向量" style="rounded=0;whiteSpace=wrap;html=1;" vertex="1" parent="1">
          <mxGeometry x="380" y="330" width="120" height="60" as="geometry" />
        </mxCell>
        <mxCell id="gV2maCszTZsxZBhJ0pXW-8" value="N" style="edgeStyle=orthogonalEdgeStyle;rounded=0;orthogonalLoop=1;jettySize=auto;html=1;" edge="1" parent="1" source="gV2maCszTZsxZBhJ0pXW-5">
          <mxGeometry relative="1" as="geometry">
            <mxPoint x="440" y="590" as="targetPoint" />
          </mxGeometry>
        </mxCell>
        <mxCell id="gV2maCszTZsxZBhJ0pXW-5" value="时间是否截止？" style="rhombus;whiteSpace=wrap;html=1;" vertex="1" parent="1">
          <mxGeometry x="370" y="450" width="140" height="80" as="geometry" />
        </mxCell>
        <mxCell id="gV2maCszTZsxZBhJ0pXW-14" value="&amp;gt;" style="edgeStyle=orthogonalEdgeStyle;rounded=0;orthogonalLoop=1;jettySize=auto;html=1;fontFamily=Helvetica;fontSize=12;fontColor=default;" edge="1" parent="1" source="gV2maCszTZsxZBhJ0pXW-11" target="gV2maCszTZsxZBhJ0pXW-12">
          <mxGeometry relative="1" as="geometry" />
        </mxCell>
        <mxCell id="gV2maCszTZsxZBhJ0pXW-15" value="&amp;lt;" style="edgeStyle=orthogonalEdgeStyle;rounded=0;orthogonalLoop=1;jettySize=auto;html=1;fontFamily=Helvetica;fontSize=12;fontColor=default;" edge="1" parent="1" source="gV2maCszTZsxZBhJ0pXW-11" target="gV2maCszTZsxZBhJ0pXW-13">
          <mxGeometry relative="1" as="geometry" />
        </mxCell>
        <mxCell id="gV2maCszTZsxZBhJ0pXW-21" value="=" style="edgeStyle=orthogonalEdgeStyle;rounded=0;orthogonalLoop=1;jettySize=auto;html=1;fontFamily=Helvetica;fontSize=12;fontColor=default;" edge="1" parent="1" source="gV2maCszTZsxZBhJ0pXW-11">
          <mxGeometry relative="1" as="geometry">
            <mxPoint x="440" y="740" as="targetPoint" />
          </mxGeometry>
        </mxCell>
        <mxCell id="gV2maCszTZsxZBhJ0pXW-11" value="比较选手的输入和正确答案" style="rhombus;whiteSpace=wrap;html=1;fontFamily=Helvetica;fontSize=12;fontColor=default;strokeColor=default;fillColor=default;" vertex="1" parent="1">
          <mxGeometry x="370" y="594.5" width="140" height="80" as="geometry" />
        </mxCell>
        <mxCell id="gV2maCszTZsxZBhJ0pXW-12" value="点阵屏显示大于" style="rounded=0;whiteSpace=wrap;html=1;fontFamily=Helvetica;fontSize=12;fontColor=default;strokeColor=default;fillColor=default;" vertex="1" parent="1">
          <mxGeometry x="200" y="604.5" width="120" height="60" as="geometry" />
        </mxCell>
        <mxCell id="gV2maCszTZsxZBhJ0pXW-13" value="点阵屏显示小于" style="rounded=0;whiteSpace=wrap;html=1;fontFamily=Helvetica;fontSize=12;fontColor=default;strokeColor=default;fillColor=default;" vertex="1" parent="1">
          <mxGeometry x="560" y="604.5" width="120" height="60" as="geometry" />
        </mxCell>
        <mxCell id="gV2maCszTZsxZBhJ0pXW-22" value="" style="endArrow=classic;html=1;rounded=0;fontFamily=Helvetica;fontSize=12;fontColor=default;entryX=0;entryY=0.5;entryDx=0;entryDy=0;" edge="1" parent="1">
          <mxGeometry width="50" height="50" relative="1" as="geometry">
            <mxPoint x="370" y="490" as="sourcePoint" />
            <mxPoint x="380" y="770" as="targetPoint" />
            <Array as="points">
              <mxPoint x="160" y="490" />
              <mxPoint x="160" y="770" />
            </Array>
          </mxGeometry>
        </mxCell>
        <mxCell id="gV2maCszTZsxZBhJ0pXW-23" value="Y" style="edgeLabel;html=1;align=center;verticalAlign=middle;resizable=0;points=[];fontSize=12;fontFamily=Helvetica;fontColor=default;" vertex="1" connectable="0" parent="gV2maCszTZsxZBhJ0pXW-22">
          <mxGeometry x="-0.8231" y="2" relative="1" as="geometry">
            <mxPoint as="offset" />
          </mxGeometry>
        </mxCell>
        <mxCell id="gV2maCszTZsxZBhJ0pXW-33" value="" style="edgeStyle=orthogonalEdgeStyle;rounded=0;orthogonalLoop=1;jettySize=auto;html=1;fontFamily=Helvetica;fontSize=12;fontColor=default;" edge="1" parent="1" source="gV2maCszTZsxZBhJ0pXW-28" target="gV2maCszTZsxZBhJ0pXW-2">
          <mxGeometry relative="1" as="geometry" />
        </mxCell>
        <mxCell id="gV2maCszTZsxZBhJ0pXW-28" value="获得抢答选手编号" style="rounded=0;whiteSpace=wrap;html=1;fontFamily=Helvetica;fontSize=12;fontColor=default;strokeColor=default;fillColor=default;" vertex="1" parent="1">
          <mxGeometry x="380" y="120" width="120" height="60" as="geometry" />
        </mxCell>
        <mxCell id="gV2maCszTZsxZBhJ0pXW-29" value="" style="endArrow=classic;html=1;rounded=0;fontFamily=Helvetica;fontSize=12;fontColor=default;entryX=0;entryY=0.5;entryDx=0;entryDy=0;exitX=0.5;exitY=0;exitDx=0;exitDy=0;" edge="1" parent="1" source="gV2maCszTZsxZBhJ0pXW-12" target="gV2maCszTZsxZBhJ0pXW-28">
          <mxGeometry width="50" height="50" relative="1" as="geometry">
            <mxPoint x="260" y="600" as="sourcePoint" />
            <mxPoint x="270" y="110" as="targetPoint" />
            <Array as="points">
              <mxPoint x="260" y="150" />
            </Array>
          </mxGeometry>
        </mxCell>
        <mxCell id="gV2maCszTZsxZBhJ0pXW-30" value="" style="endArrow=classic;html=1;rounded=0;fontFamily=Helvetica;fontSize=12;fontColor=default;entryX=1;entryY=0.5;entryDx=0;entryDy=0;" edge="1" parent="1" target="gV2maCszTZsxZBhJ0pXW-28">
          <mxGeometry width="50" height="50" relative="1" as="geometry">
            <mxPoint x="620" y="605" as="sourcePoint" />
            <mxPoint x="620" y="130" as="targetPoint" />
            <Array as="points">
              <mxPoint x="620" y="150" />
            </Array>
          </mxGeometry>
        </mxCell>
        <mxCell id="gV2maCszTZsxZBhJ0pXW-34" value="游戏结束" style="ellipse;whiteSpace=wrap;html=1;fontFamily=Helvetica;fontSize=12;fontColor=default;strokeColor=default;fillColor=default;" vertex="1" parent="1">
          <mxGeometry x="380" y="740" width="120" height="80" as="geometry" />
        </mxCell>
      </root>
    </mxGraphModel>
  </diagram>
</mxfile>
